<svg width="512" height="512" viewBox="0 0 512 512" fill="none" xmlns="http://www.w3.org/2000/svg">
<g clip-path="url(#clip0_1_8)">
<path d="M256 0C205.368 0 155.873 15.0141 113.774 43.1438C71.675 71.2734 38.8629 111.255 19.4868 158.033C0.110798 204.811 -4.95886 256.284 4.91896 305.943C14.7968 355.602 39.1784 401.217 74.9807 437.019C110.783 472.822 156.398 497.203 206.057 507.081C255.716 516.959 307.189 511.889 353.967 492.513C400.745 473.137 440.727 440.325 468.856 398.226C496.986 356.127 512 306.632 512 256C511.927 188.127 484.932 123.055 436.939 75.0611C388.945 27.0676 323.873 0.0728644 256 0V0ZM256 456.946C216.257 456.946 177.406 445.161 144.36 423.081C111.315 401 85.559 369.617 70.3499 332.899C55.1407 296.181 51.1613 255.777 58.9149 216.797C66.6684 177.818 85.8067 142.012 113.91 113.91C142.012 85.8067 177.818 66.6684 216.797 58.9149C255.777 51.1613 296.181 55.1407 332.899 70.3499C369.617 85.559 401 111.315 423.081 144.36C445.161 177.406 456.946 216.257 456.946 256C456.946 309.294 435.775 360.406 398.09 398.09C360.406 435.775 309.294 456.946 256 456.946V456.946Z" fill="#008000"/>
<path d="M214.857 234.61V420H297.143V234.61H352L256 93L160 234.61H214.857Z" fill="#008000"/>
</g>
<defs>
<clipPath id="clip0_1_8">
<rect width="512" height="512" fill="white"/>
</clipPath>
</defs>
</svg>
