<?xml version="1.0" standalone="no"?><!DOCTYPE svg PUBLIC "-//W3C//DTD SVG 1.1//EN" "http://www.w3.org/Graphics/SVG/1.1/DTD/svg11.dtd"><svg t="1649406108871" class="icon" viewBox="0 0 1024 1024" version="1.1" xmlns="http://www.w3.org/2000/svg" p-id="2928" width="8" height="8" xmlns:xlink="http://www.w3.org/1999/xlink"><defs><style type="text/css"></style></defs><path d="M465.92 693.4528V972.8c0 22.528 18.432 40.96 40.96 40.96h12.4928c22.528 0 40.96-18.432 40.96-40.96V693.4528h-94.4128z" fill="#7A7979" p-id="2929"></path><path d="M506.88 802.4064c-5.7344 0-10.24-4.5056-10.24-10.24v-9.6256c0-5.7344 4.5056-10.24 10.24-10.24s10.24 4.5056 10.24 10.24v9.8304c0 5.3248-4.5056 9.8304-10.24 10.0352zM506.88 867.7376c-5.7344 0-10.24-4.5056-10.24-10.24v-26.4192c0-5.7344 4.5056-10.24 10.24-10.24s10.24 4.5056 10.24 10.24v26.4192c0 5.5296-4.5056 10.24-10.24 10.24z" fill="#C9C9C9" p-id="2930"></path><path d="M519.3728 1024h-12.4928c-28.2624 0-51.2-22.9376-51.2-51.2V693.4528c0-5.7344 4.5056-10.24 10.24-10.24h94.4128c5.7344 0 10.24 4.5056 10.24 10.24V972.8c0 28.2624-22.9376 51.2-51.2 51.2z m-43.2128-320.3072V972.8c0 16.9984 13.7216 30.72 30.72 30.72h12.4928c16.9984 0 30.72-13.7216 30.72-30.72V703.6928h-73.9328z" fill="#231F20" p-id="2931"></path><path d="M652.4928 1013.76h-278.528v-3.6864c0-61.8496 50.176-112.2304 112.2304-112.2304h54.272c61.8496 0 112.2304 50.176 112.2304 112.2304v3.6864z" fill="#7A7979" p-id="2932"></path><path d="M652.4928 1024h-278.528c-5.7344 0-10.24-4.5056-10.24-10.24v-3.6864c0-67.3792 54.8864-122.4704 122.4704-122.4704h54.272c67.3792 0 122.4704 54.8864 122.4704 122.4704v3.6864c-0.2048 5.7344-4.9152 10.24-10.4448 10.24z m-268.0832-20.48h257.6384c-3.4816-53.0432-47.7184-95.232-101.5808-95.232h-54.272c-54.0672 0-98.5088 42.1888-101.7856 95.232z" fill="#231F20" p-id="2933"></path><path d="M540.2624 949.248h-7.9872c-5.7344 0-10.24-4.5056-10.24-10.24s4.5056-10.24 10.24-10.24h7.9872c5.7344 0 10.24 4.5056 10.24 10.24s-4.5056 10.24-10.24 10.24zM425.3696 983.04c-1.8432 0-3.6864-0.4096-5.3248-1.6384-4.7104-3.072-6.3488-9.216-3.2768-14.1312 14.9504-24.1664 40.96-38.7072 69.2224-38.7072h6.9632c5.7344 0 10.24 4.5056 10.24 10.24s-4.5056 10.24-10.24 10.24h-6.9632c-21.2992 0-40.5504 10.8544-51.8144 28.8768-1.8432 3.4816-5.3248 5.12-8.8064 5.12z" fill="#C9C9C9" p-id="2934"></path><path d="M373.9648 1024h-229.376c-5.7344 0-10.24-4.5056-10.24-10.24s4.5056-10.24 10.24-10.24h229.376c5.7344 0 10.24 4.5056 10.24 10.24s-4.7104 10.24-10.24 10.24zM102.6048 1024h-9.216c-5.7344 0-10.24-4.5056-10.24-10.24s4.5056-10.24 10.24-10.24h9.216c5.7344 0 10.24 4.5056 10.24 10.24s-4.7104 10.24-10.24 10.24z" fill="#231F20" p-id="2935"></path><path d="M229.9904 864.0512c1.024-3.072 1.6384-6.5536 1.6384-10.0352 0-18.0224-14.7456-32.768-32.768-32.768s-32.768 14.7456-32.768 32.768c0 3.4816 0.6144 6.9632 1.6384 10.0352-14.7456 3.2768-25.6 16.384-25.6 31.9488 0 18.0224 14.7456 32.768 32.768 32.768 9.4208 0 18.0224-4.096 23.9616-10.4448 5.9392 6.5536 14.5408 10.4448 23.9616 10.4448 18.0224 0 32.768-14.7456 32.768-32.768 0-15.7696-10.8544-28.8768-25.6-31.9488zM343.6544 864.0512c1.024-3.072 1.6384-6.5536 1.6384-10.0352 0-18.0224-14.7456-32.768-32.768-32.768s-32.768 14.7456-32.768 32.768c0 3.4816 0.6144 6.9632 1.6384 10.0352-14.7456 3.2768-25.6 16.384-25.6 31.9488 0 18.0224 14.7456 32.768 32.768 32.768 9.4208 0 18.0224-4.096 23.9616-10.4448 5.9392 6.5536 14.5408 10.4448 23.9616 10.4448 18.0224 0 32.768-14.7456 32.768-32.768 0-15.7696-11.0592-28.8768-25.6-31.9488z" fill="#08B26C" p-id="2936"></path><path d="M222.8224 939.008c-8.6016 0-16.9984-2.6624-23.9616-7.3728-6.9632 4.7104-15.36 7.3728-23.9616 7.3728-23.7568 0-43.008-19.2512-43.008-43.008 0-16.5888 9.8304-31.5392 24.1664-38.7072 0-1.024-0.2048-2.2528-0.2048-3.4816 0-23.7568 19.2512-43.008 43.008-43.008s43.008 19.2512 43.008 43.008c0 1.2288 0 2.2528-0.2048 3.4816 14.336 7.168 24.1664 22.1184 24.1664 38.7072 0 23.552-19.2512 43.008-43.008 43.008z m-23.9616-31.1296c2.8672 0 5.5296 1.2288 7.5776 3.2768 4.3008 4.7104 10.24 7.168 16.5888 7.168 12.4928 0 22.528-10.0352 22.528-22.528 0-10.4448-7.3728-19.6608-17.6128-21.9136-2.8672-0.6144-5.3248-2.4576-6.7584-4.9152-1.4336-2.4576-1.8432-5.5296-0.8192-8.192 0.8192-2.2528 1.024-4.5056 1.024-6.9632 0-12.4928-10.0352-22.528-22.528-22.528s-22.528 10.0352-22.528 22.528c0 2.4576 0.4096 4.7104 1.024 6.9632 0.8192 2.6624 0.6144 5.7344-0.8192 8.192-1.4336 2.4576-3.8912 4.3008-6.7584 4.9152-10.24 2.2528-17.6128 11.4688-17.6128 21.9136 0 12.4928 10.0352 22.528 22.528 22.528 6.3488 0 12.288-2.6624 16.5888-7.168 2.048-2.048 4.7104-3.2768 7.5776-3.2768z" fill="#231F20" p-id="2937"></path><path d="M336.4864 939.008c-8.6016 0-16.9984-2.6624-23.9616-7.3728-6.9632 4.7104-15.36 7.3728-23.9616 7.3728-23.7568 0-43.008-19.2512-43.008-43.008 0-16.5888 9.8304-31.5392 24.1664-38.7072 0-1.024-0.2048-2.2528-0.2048-3.4816 0-23.7568 19.2512-43.008 43.008-43.008s43.008 19.2512 43.008 43.008c0 1.2288 0 2.2528-0.2048 3.4816 14.336 7.168 24.1664 22.1184 24.1664 38.7072 0 23.552-19.2512 43.008-43.008 43.008z m-24.1664-31.1296c2.8672 0 5.5296 1.2288 7.5776 3.2768 4.3008 4.7104 10.24 7.168 16.5888 7.168 12.4928 0 22.528-10.0352 22.528-22.528 0-10.4448-7.3728-19.6608-17.6128-21.9136-2.8672-0.6144-5.3248-2.4576-6.7584-4.9152s-1.8432-5.5296-0.8192-8.192c0.8192-2.2528 1.024-4.5056 1.024-6.9632 0-12.4928-10.0352-22.528-22.528-22.528s-22.528 10.0352-22.528 22.528c0 2.2528 0.4096 4.7104 1.024 6.9632 0.8192 2.6624 0.6144 5.7344-0.8192 8.192-1.4336 2.4576-3.8912 4.3008-6.7584 4.9152-10.24 2.2528-17.6128 11.4688-17.6128 21.9136 0 12.4928 10.0352 22.528 22.528 22.528 6.3488 0 12.288-2.6624 16.5888-7.168 2.048-2.048 4.9152-3.2768 7.5776-3.2768zM198.8608 1024c-5.7344 0-10.24-4.5056-10.24-10.24v-95.6416c0-5.7344 4.5056-10.24 10.24-10.24s10.24 4.5056 10.24 10.24V1013.76c0 5.7344-4.7104 10.24-10.24 10.24z" fill="#231F20" p-id="2938"></path><path d="M312.32 1024c-5.7344 0-10.24-4.5056-10.24-10.24v-95.6416c0-5.7344 4.5056-10.24 10.24-10.24s10.24 4.5056 10.24 10.24V1013.76c0 5.7344-4.5056 10.24-10.24 10.24zM879.4112 1024h-229.376c-5.7344 0-10.24-4.5056-10.24-10.24s4.5056-10.24 10.24-10.24h229.376c5.7344 0 10.24 4.5056 10.24 10.24s-4.5056 10.24-10.24 10.24zM930.6112 1024h-9.216c-5.7344 0-10.24-4.5056-10.24-10.24s4.5056-10.24 10.24-10.24h9.216c5.7344 0 10.24 4.5056 10.24 10.24s-4.5056 10.24-10.24 10.24z" fill="#231F20" p-id="2939"></path><path d="M794.0096 864.0512c-1.024-3.072-1.6384-6.5536-1.6384-10.0352 0-18.0224 14.7456-32.768 32.768-32.768s32.768 14.7456 32.768 32.768c0 3.4816-0.6144 6.9632-1.6384 10.0352 14.7456 3.2768 25.6 16.384 25.6 31.9488 0 18.0224-14.7456 32.768-32.768 32.768-9.4208 0-18.0224-4.096-23.9616-10.4448-5.9392 6.5536-14.5408 10.4448-23.9616 10.4448-18.0224 0-32.768-14.7456-32.768-32.768 0-15.7696 10.8544-28.8768 25.6-31.9488zM680.3456 864.0512c-1.024-3.072-1.6384-6.5536-1.6384-10.0352 0-18.0224 14.7456-32.768 32.768-32.768s32.768 14.7456 32.768 32.768c0 3.4816-0.6144 6.9632-1.6384 10.0352 14.7456 3.2768 25.6 16.384 25.6 31.9488 0 18.0224-14.7456 32.768-32.768 32.768-9.4208 0-18.0224-4.096-23.9616-10.4448-5.9392 6.5536-14.5408 10.4448-23.9616 10.4448-18.0224 0-32.768-14.7456-32.768-32.768 0-15.7696 11.0592-28.8768 25.6-31.9488z" fill="#08B26C" p-id="2940"></path><path d="M849.3056 939.008c-8.6016 0-16.9984-2.6624-23.9616-7.3728-6.9632 4.7104-15.36 7.3728-23.9616 7.3728-23.7568 0-43.008-19.2512-43.008-43.008 0-16.5888 9.8304-31.5392 24.1664-38.7072 0-1.024-0.2048-2.2528-0.2048-3.4816 0-23.7568 19.2512-43.008 43.008-43.008s43.008 19.2512 43.008 43.008c0 1.2288 0 2.2528-0.2048 3.4816 14.336 7.168 24.1664 22.1184 24.1664 38.7072-0.2048 23.552-19.456 43.008-43.008 43.008z m-24.1664-31.1296c2.8672 0 5.5296 1.2288 7.5776 3.2768 4.3008 4.7104 10.24 7.168 16.5888 7.168 12.4928 0 22.528-10.0352 22.528-22.528 0-10.4448-7.3728-19.6608-17.6128-21.9136-2.8672-0.6144-5.3248-2.4576-6.7584-4.9152-1.4336-2.4576-1.8432-5.5296-0.8192-8.192 0.8192-2.2528 1.024-4.5056 1.024-6.9632 0-12.4928-10.0352-22.528-22.528-22.528s-22.528 10.0352-22.528 22.528c0 2.4576 0.4096 4.7104 1.024 6.9632 0.8192 2.6624 0.6144 5.7344-0.8192 8.192-1.4336 2.4576-3.8912 4.3008-6.7584 4.9152-10.24 2.2528-17.6128 11.4688-17.6128 21.9136 0 12.4928 10.0352 22.528 22.528 22.528 6.3488 0 12.288-2.6624 16.5888-7.168 2.048-2.048 4.7104-3.2768 7.5776-3.2768z" fill="#231F20" p-id="2941"></path><path d="M735.6416 939.008c-8.6016 0-16.9984-2.6624-23.9616-7.3728-6.9632 4.7104-15.36 7.3728-23.9616 7.3728-23.7568 0-43.008-19.2512-43.008-43.008 0-16.5888 9.8304-31.5392 24.1664-38.7072 0-1.024-0.2048-2.2528-0.2048-3.4816 0-23.7568 19.2512-43.008 43.008-43.008s43.008 19.2512 43.008 43.008c0 1.2288 0 2.2528-0.2048 3.4816 14.336 7.168 24.1664 22.1184 24.1664 38.7072 0 23.552-19.2512 43.008-43.008 43.008z m-23.9616-31.1296c2.8672 0 5.5296 1.2288 7.5776 3.2768 4.3008 4.7104 10.24 7.168 16.5888 7.168 12.4928 0 22.528-10.0352 22.528-22.528 0-10.4448-7.3728-19.6608-17.6128-21.9136-2.8672-0.6144-5.3248-2.4576-6.7584-4.9152-1.4336-2.4576-1.8432-5.5296-0.8192-8.192 0.8192-2.2528 1.024-4.5056 1.024-6.9632 0-12.4928-10.0352-22.528-22.528-22.528s-22.528 10.0352-22.528 22.528c0 2.2528 0.4096 4.7104 1.024 6.9632 0.8192 2.6624 0.6144 5.7344-0.8192 8.192s-3.8912 4.3008-6.7584 4.9152c-10.24 2.2528-17.6128 11.4688-17.6128 21.9136 0 12.4928 10.0352 22.528 22.528 22.528 6.3488 0 12.288-2.6624 16.5888-7.168 1.8432-2.048 4.7104-3.2768 7.5776-3.2768zM825.1392 1024c-5.7344 0-10.24-4.5056-10.24-10.24v-95.6416c0-5.7344 4.5056-10.24 10.24-10.24s10.24 4.5056 10.24 10.24V1013.76c0 5.7344-4.5056 10.24-10.24 10.24z" fill="#231F20" p-id="2942"></path><path d="M711.68 1024c-5.7344 0-10.24-4.5056-10.24-10.24v-95.6416c0-5.7344 4.5056-10.24 10.24-10.24s10.24 4.5056 10.24 10.24V1013.76c0 5.7344-4.7104 10.24-10.24 10.24z" fill="#231F20" p-id="2943"></path><path d="M603.7504 750.592h-181.248c-33.9968 0-61.44-27.4432-61.44-61.44V71.68c0-33.9968 27.4432-61.44 61.44-61.44h181.248c33.9968 0 61.44 27.4432 61.44 61.44v617.472c0 33.9968-27.4432 61.44-61.44 61.44z" fill="#C9C9C9" p-id="2944"></path><path d="M624.2304 81.92c-5.7344 0-10.24-4.5056-10.24-10.24s-4.5056-10.24-10.24-10.24-10.24-4.5056-10.24-10.24 4.5056-10.24 10.24-10.24c16.9984 0 30.72 13.7216 30.72 30.72 0 5.7344-4.5056 10.24-10.24 10.24zM422.5024 719.872c-16.9984 0-30.72-13.7216-30.72-30.72 0-5.7344 4.5056-10.24 10.24-10.24s10.24 4.5056 10.24 10.24 4.5056 10.24 10.24 10.24 10.24 4.5056 10.24 10.24-4.5056 10.24-10.24 10.24z" fill="#F9F9F9" p-id="2945"></path><path d="M513.2288 156.0576m-88.2688 0a88.2688 88.2688 0 1 0 176.5376 0 88.2688 88.2688 0 1 0-176.5376 0Z" fill="#FC3A6D" p-id="2946"></path><path d="M513.2288 254.5664c-54.272 0-98.5088-44.2368-98.5088-98.5088S458.752 57.344 513.2288 57.344s98.5088 44.2368 98.5088 98.5088-44.2368 98.7136-98.5088 98.7136z m0-176.7424c-43.008 0-78.0288 35.0208-78.0288 78.0288s35.0208 78.0288 78.0288 78.0288 78.0288-35.0208 78.0288-78.0288S556.2368 77.824 513.2288 77.824z" fill="#231F20" p-id="2947"></path><path d="M272.5888 156.0576c0-48.7424 39.5264-88.2688 88.2688-88.2688v88.2688h-88.2688zM272.5888 380.5184c0-48.7424 39.5264-88.2688 88.2688-88.2688v88.2688h-88.2688zM272.5888 604.7744c0-48.7424 39.5264-88.2688 88.2688-88.2688v88.2688h-88.2688zM753.8688 156.0576c0-48.7424-39.5264-88.2688-88.2688-88.2688v88.2688h88.2688zM753.8688 380.5184c0-48.7424-39.5264-88.2688-88.2688-88.2688v88.2688h88.2688zM753.8688 604.7744c0-48.7424-39.5264-88.2688-88.2688-88.2688v88.2688h88.2688z" fill="#7A7979" p-id="2948"></path><path d="M360.8576 166.2976h-88.2688c-5.7344 0-10.24-4.5056-10.24-10.24 0-54.272 44.2368-98.5088 98.5088-98.5088 5.7344 0 10.24 4.5056 10.24 10.24v88.2688c0 5.5296-4.7104 10.24-10.24 10.24z m-77.4144-20.48h67.1744V78.6432c-35.0208 4.5056-62.6688 32.1536-67.1744 67.1744zM360.8576 390.7584h-88.2688c-5.7344 0-10.24-4.5056-10.24-10.24 0-54.272 44.2368-98.5088 98.5088-98.5088 5.7344 0 10.24 4.5056 10.24 10.24v88.2688c0 5.5296-4.7104 10.24-10.24 10.24z m-77.4144-20.48h67.1744V303.104c-35.0208 4.5056-62.6688 32.1536-67.1744 67.1744zM360.8576 615.0144h-88.2688c-5.7344 0-10.24-4.5056-10.24-10.24 0-54.272 44.2368-98.5088 98.5088-98.5088 5.7344 0 10.24 4.5056 10.24 10.24v88.2688c0 5.7344-4.7104 10.24-10.24 10.24z m-77.4144-20.48h67.1744v-67.1744c-35.0208 4.7104-62.6688 32.3584-67.1744 67.1744zM753.8688 166.2976H665.6c-5.7344 0-10.24-4.5056-10.24-10.24V67.584c0-5.7344 4.5056-10.24 10.24-10.24 54.272 0 98.5088 44.2368 98.5088 98.5088 0 5.7344-4.7104 10.4448-10.24 10.4448z m-78.2336-20.48h67.1744c-4.5056-34.816-32.3584-62.6688-67.1744-67.1744v67.1744zM753.8688 390.7584H665.6c-5.7344 0-10.24-4.5056-10.24-10.24v-88.2688c0-5.7344 4.5056-10.24 10.24-10.24 54.272 0 98.5088 44.2368 98.5088 98.5088 0 5.5296-4.7104 10.24-10.24 10.24z m-78.2336-20.48h67.1744c-4.5056-34.816-32.3584-62.6688-67.1744-67.1744v67.1744zM753.8688 615.0144H665.6c-5.7344 0-10.24-4.5056-10.24-10.24v-88.2688c0-5.7344 4.5056-10.24 10.24-10.24 54.272 0 98.5088 44.2368 98.5088 98.5088 0 5.7344-4.7104 10.24-10.24 10.24z m-78.2336-20.48h67.1744c-4.5056-34.816-32.3584-62.6688-67.1744-67.1744v67.1744z" fill="#231F20" p-id="2949"></path><path d="M507.904 114.2784c-5.12 0-9.6256-3.8912-10.24-9.216-0.6144-5.5296 3.4816-10.6496 9.216-11.264 2.048-0.2048 4.3008-0.4096 6.3488-0.4096 5.7344 0 10.24 4.5056 10.24 10.24s-4.5056 10.24-10.24 10.24c-1.4336 0-2.8672 0-4.3008 0.2048-0.4096 0.2048-0.8192 0.2048-1.024 0.2048zM460.8 166.2976c-5.7344 0-10.24-4.5056-10.24-10.24 0-17.8176 7.5776-34.816 20.8896-46.6944 4.3008-3.6864 10.6496-3.4816 14.5408 0.8192 3.6864 4.3008 3.4816 10.6496-0.8192 14.5408-9.0112 7.9872-14.1312 19.456-14.1312 31.3344 0 5.5296-4.5056 10.24-10.24 10.24z" fill="#FFA9C8" p-id="2950"></path><path d="M513.2288 380.5184m-88.2688 0a88.2688 88.2688 0 1 0 176.5376 0 88.2688 88.2688 0 1 0-176.5376 0Z" fill="#F9B630" p-id="2951"></path><path d="M513.2288 479.0272c-54.272 0-98.5088-44.2368-98.5088-98.5088s44.2368-98.5088 98.5088-98.5088 98.5088 44.2368 98.5088 98.5088-44.2368 98.5088-98.5088 98.5088z m0-176.7424c-43.008 0-78.0288 35.0208-78.0288 78.0288s35.0208 78.0288 78.0288 78.0288 78.0288-35.0208 78.0288-78.0288-35.0208-78.0288-78.0288-78.0288z" fill="#231F20" p-id="2952"></path><path d="M507.904 338.7392c-5.12 0-9.6256-3.8912-10.24-9.216-0.6144-5.5296 3.4816-10.6496 9.216-11.264 2.048-0.2048 4.3008-0.4096 6.3488-0.4096 5.7344 0 10.24 4.5056 10.24 10.24s-4.5056 10.24-10.24 10.24c-1.4336 0-2.8672 0-4.3008 0.2048-0.4096 0.2048-0.8192 0.2048-1.024 0.2048zM460.8 390.7584c-5.7344 0-10.24-4.5056-10.24-10.24 0-17.8176 7.5776-34.816 20.8896-46.6944 4.3008-3.6864 10.6496-3.4816 14.5408 0.8192 3.6864 4.3008 3.4816 10.6496-0.8192 14.5408-9.0112 7.9872-14.1312 19.456-14.1312 31.3344 0 5.5296-4.5056 10.24-10.24 10.24z" fill="#FFEDCC" p-id="2953"></path><path d="M513.2288 604.7744m-88.2688 0a88.2688 88.2688 0 1 0 176.5376 0 88.2688 88.2688 0 1 0-176.5376 0Z" fill="#08B26C" p-id="2954"></path><path d="M513.2288 703.488c-54.272 0-98.5088-44.2368-98.5088-98.5088s44.2368-98.5088 98.5088-98.5088 98.5088 44.2368 98.5088 98.5088-44.2368 98.5088-98.5088 98.5088z m0-176.7424c-43.008 0-78.0288 35.0208-78.0288 78.0288s35.0208 78.0288 78.0288 78.0288 78.0288-35.0208 78.0288-78.0288-35.0208-78.0288-78.0288-78.0288z" fill="#231F20" p-id="2955"></path><path d="M507.904 562.9952c-5.12 0-9.6256-3.8912-10.24-9.216-0.6144-5.5296 3.4816-10.6496 9.216-11.264 2.048-0.2048 4.3008-0.4096 6.3488-0.4096 5.7344 0 10.24 4.5056 10.24 10.24s-4.5056 10.24-10.24 10.24c-1.4336 0-2.8672 0-4.3008 0.2048-0.4096 0.2048-0.8192 0.2048-1.024 0.2048zM460.8 615.0144c-5.7344 0-10.24-4.5056-10.24-10.24 0-17.8176 7.5776-34.816 20.8896-46.6944 4.3008-3.6864 10.6496-3.4816 14.5408 0.8192 3.6864 4.3008 3.4816 10.6496-0.8192 14.5408-9.0112 7.9872-14.1312 19.456-14.1312 31.3344 0 5.7344-4.5056 10.24-10.24 10.24z" fill="#35EF9F" p-id="2956"></path><path d="M361.0624 232.448c-5.7344 0-10.24-4.5056-10.24-10.24v-5.7344c0-5.7344 4.5056-10.24 10.24-10.24s10.24 4.5056 10.24 10.24v5.7344c0 5.7344-4.5056 10.24-10.24 10.24z" fill="#231F20" p-id="2957"></path><path d="M603.7504 760.832h-181.248c-39.5264 0-71.68-32.1536-71.68-71.68v-432.128c0-5.7344 4.5056-10.24 10.24-10.24s10.24 4.5056 10.24 10.24v432.128c0 28.2624 22.9376 51.2 51.2 51.2h181.248c28.2624 0 51.2-22.9376 51.2-51.2V71.68c0-28.2624-22.9376-51.2-51.2-51.2h-181.248c-28.2624 0-51.2 22.9376-51.2 51.2v108.544c0 5.7344-4.5056 10.24-10.24 10.24s-10.24-4.5056-10.24-10.24V71.68c0-39.5264 32.1536-71.68 71.68-71.68h181.248c39.5264 0 71.68 32.1536 71.68 71.68v617.472c0 39.5264-32.1536 71.68-71.68 71.68z" fill="#231F20" p-id="2958"></path></svg>