<?xml version="1.0" standalone="no"?><!DOCTYPE svg PUBLIC "-//W3C//DTD SVG 1.1//EN" "http://www.w3.org/Graphics/SVG/1.1/DTD/svg11.dtd"><svg t="1649769385830" class="icon" viewBox="0 0 1024 1024" version="1.1" xmlns="http://www.w3.org/2000/svg" p-id="10365" xmlns:xlink="http://www.w3.org/1999/xlink" width="512" height="512"><defs><style type="text/css"></style></defs><path d="M1006.44518821 787.4942813L621.8767089 98.26765533C599.4019276 58.31248898 556.94956257 35.83770769 512 35.83770769s-87.4019276 24.9719788-109.8767089 62.42994764L17.55481179 787.4942813c-22.47478128 39.95516634-22.47478128 89.89912513 0 129.85429263S82.48195811 984.77291778 127.43152067 984.77291778h769.13695866c47.4467601 0 87.4019276-24.9719788 109.87670888-67.42434385 22.47478128-39.95516634 22.47478128-89.89912513 0-129.85429263zM474.5420312 310.5294793c0-19.97758377 17.48038504-37.4579688 37.4579688-37.45796877s34.96077127 14.98318753 37.4579688 34.96077009V635.16520857c0 19.97758377-17.48038504 37.4579688-37.4579688 37.45796879s-34.96077127-14.98318753-37.4579688-34.96077125V310.5294793zM512 859.9130214c-27.46917752 0-49.94395879-22.47478128-49.94395879-49.94395879s22.47478128-49.94395879 49.94395879-49.94395765 49.94395879 22.47478128 49.94395879 49.94395765-22.47478128 49.94395879-49.94395879 49.94395879z" fill="#FFFF00" p-id="10366"></path></svg>